<?xml version="1.0" standalone="no"?>
<!DOCTYPE svg PUBLIC "-//W3C//DTD SVG 20010904//EN"
 "http://www.w3.org/TR/2001/REC-SVG-20010904/DTD/svg10.dtd">
<svg version="1.0" xmlns="http://www.w3.org/2000/svg"
 width="700.000000pt" height="700.000000pt" viewBox="0 0 700.000000 700.000000"
 preserveAspectRatio="xMidYMid meet">
<metadata>
Created by potrace 1.11, written by Peter Selinger 2001-2013
</metadata>
<g transform="translate(0.000000,700.000000) scale(0.100000,-0.100000)"
fill="#000000" stroke="none">
<path d="M2410 6993 c-73 -12 -182 -48 -237 -79 -81 -45 -121 -93 -243 -287
-92 -147 -184 -292 -476 -752 -52 -82 -100 -159 -107 -169 -152 -239 -195
-311 -191 -317 4 -7 156 -100 259 -159 17 -10 81 -47 143 -84 61 -36 160 -95
220 -129 59 -35 195 -116 302 -179 107 -63 234 -138 282 -167 48 -28 90 -51
95 -51 5 0 49 69 98 153 49 83 130 220 179 302 49 83 97 164 106 180 9 17 36
60 58 98 23 37 42 71 42 76 0 5 3 11 8 13 4 2 40 59 81 128 127 214 331 541
398 639 60 88 64 97 52 117 -21 34 -199 225 -318 342 -172 169 -295 250 -459
301 -69 22 -227 35 -292 24z"/>
<path d="M3077 6952 c-12 -3 -3 -14 31 -42 101 -79 219 -208 373 -405 149
-191 296 -428 433 -703 95 -189 235 -517 225 -526 -2 -2 -83 -48 -179 -104
-96 -55 -195 -111 -220 -126 -25 -14 -75 -42 -112 -63 -37 -20 -66 -38 -65
-40 2 -1 59 -5 128 -8 68 -3 162 -7 209 -10 155 -8 284 -15 405 -20 66 -3 167
-7 225 -10 188 -9 283 -14 425 -20 77 -4 161 -8 188 -10 l47 -3 102 172 c56
94 123 207 148 251 26 44 99 168 162 275 63 107 168 285 233 395 65 110 140
238 167 284 l49 83 -33 -20 c-127 -77 -482 -282 -489 -282 -5 0 -9 -4 -9 -10
0 -5 -6 -10 -13 -10 -7 0 -45 54 -83 121 -38 66 -95 164 -126 217 -31 53 -64
111 -73 127 -8 17 -27 49 -43 72 -15 24 -51 83 -81 133 -67 111 -118 166 -196
213 -115 69 -81 66 -991 69 -451 2 -828 2 -837 0z"/>
<path d="M5935 5042 c-308 -191 -1152 -716 -1162 -724 -13 -11 -2 -34 71 -146
189 -290 751 -1205 847 -1379 17 -32 47 -86 66 -120 19 -35 39 -63 45 -63 6 0
97 23 202 51 193 52 368 110 464 154 115 53 264 172 339 270 108 143 155 378
105 532 -12 38 -113 223 -258 470 -628 1077 -596 1023 -604 1023 -3 0 -54 -31
-115 -68z"/>
<path d="M85 4777 c16 -11 327 -203 498 -306 l27 -17 -104 -170 c-58 -93 -110
-174 -115 -181 -6 -7 -11 -14 -11 -16 0 -2 -36 -64 -80 -137 -44 -73 -80 -134
-80 -136 0 -1 -16 -29 -35 -61 -19 -32 -43 -83 -54 -114 -25 -75 -26 -211 -1
-283 9 -28 106 -217 215 -421 108 -203 220 -413 248 -465 27 -52 66 -124 85
-160 19 -36 51 -96 72 -135 20 -38 61 -115 90 -170 30 -55 58 -110 64 -122 6
-13 15 -23 20 -23 5 0 7 3 4 6 -3 3 1 33 9 67 8 34 16 72 19 83 8 43 106 302
166 439 141 323 423 755 706 1082 l54 62 30 -17 c47 -26 119 -71 407 -255 67
-43 125 -76 127 -74 2 2 -14 41 -36 86 -22 45 -40 83 -40 85 0 2 -31 68 -69
147 -79 166 -122 257 -306 644 -227 480 -237 500 -241 504 -3 4 -35 5 -309 15
-93 4 -217 9 -275 11 -58 3 -170 7 -250 10 -80 3 -188 8 -240 10 -52 2 -167 7
-255 10 -88 3 -205 8 -260 11 -88 4 -98 3 -80 -9z"/>
<path d="M4529 3152 c-27 -45 -224 -384 -372 -637 -77 -132 -153 -261 -168
-288 -16 -26 -29 -52 -29 -57 0 -6 -4 -10 -10 -10 -5 0 -10 -4 -10 -9 0 -8
-63 -118 -173 -303 l-45 -77 146 -233 c80 -128 283 -451 450 -718 l303 -485
-5 125 c-4 69 -8 163 -11 210 -3 47 -7 136 -10 198 l-6 112 28 -1 c15 -1 89 1
163 5 687 33 735 39 840 98 126 70 146 96 285 363 111 215 247 476 352 675 28
52 78 149 113 215 34 66 91 175 127 243 35 67 63 122 61 122 -2 0 -55 -20
-118 -45 -165 -65 -340 -112 -476 -130 -20 -2 -44 -6 -53 -9 -9 -2 -47 -7 -84
-11 -37 -3 -78 -8 -90 -10 -95 -19 -609 -26 -823 -12 -162 10 -277 19 -294 23
-8 1 -22 3 -31 3 -14 1 -17 15 -19 94 -1 50 -3 117 -5 147 -2 30 -6 138 -10
240 -4 102 -8 186 -9 187 -1 1 -8 -10 -17 -25z"/>
<path d="M1205 2343 c-62 -177 -96 -289 -110 -363 -5 -25 -10 -52 -20 -100
-42 -211 -17 -382 82 -559 67 -120 239 -269 331 -286 50 -9 107 -15 187 -20
50 -3 119 -8 155 -10 36 -2 94 -7 130 -9 66 -6 155 -12 290 -21 41 -3 113 -7
160 -10 47 -3 110 -8 140 -10 30 -2 93 -7 140 -10 47 -3 114 -7 150 -10 36 -3
103 -7 150 -10 47 -3 113 -8 148 -11 55 -5 62 -3 63 13 1 10 2 34 4 53 2 34
12 271 20 475 2 55 7 161 10 235 11 259 14 326 21 490 3 91 7 184 9 208 1 23
-1 43 -4 43 -12 2 -98 7 -271 14 -96 3 -213 8 -260 10 -47 2 -157 7 -245 10
-88 4 -187 8 -220 10 -33 2 -121 7 -195 10 -74 3 -160 7 -190 10 -30 3 -98 7
-150 10 -140 8 -249 16 -270 20 -9 2 -55 6 -101 10 l-84 6 -70 -198z"/>
</g>
</svg>
